<svg xmlns="http://www.w3.org/2000/svg" xmlns:xlink="http://www.w3.org/1999/xlink" viewBox="0 0 1919.1 934.88"><defs><style>.cls-1{opacity:0.14;}.cls-2{fill:url(#Безымянный_градиент_576);}.cls-3{fill:url(#Безымянный_градиент_112);}.cls-4{fill:url(#Безымянный_градиент_111);}.cls-5{fill:url(#Безымянный_градиент_110);}.cls-6{fill:url(#Безымянный_градиент_109);}.cls-7{fill:url(#Безымянный_градиент_108);}.cls-8{fill:url(#Безымянный_градиент_107);}.cls-9{fill:url(#Безымянный_градиент_106);}.cls-10{fill:url(#Безымянный_градиент_105);}.cls-11{fill:url(#Безымянный_градиент_104);}.cls-12{fill:url(#Безымянный_градиент_103);}.cls-13{fill:url(#Безымянный_градиент_102);}.cls-14{fill:#252f39;}</style><linearGradient id="Безымянный_градиент_576" x1="66.46" y1="401.8" x2="1611.73" y2="401.8" gradientUnits="userSpaceOnUse"><stop offset="0.04" stop-color="#d1fff5" stop-opacity="0.2"/><stop offset="0.25" stop-color="#cafaf2" stop-opacity="0.23"/><stop offset="0.44" stop-color="#b3eae7" stop-opacity="0.31"/><stop offset="0.62" stop-color="#8dcfd6" stop-opacity="0.46"/><stop offset="0.79" stop-color="#58aabe" stop-opacity="0.66"/><stop offset="0.96" stop-color="#147a9f" stop-opacity="0.92"/><stop offset="1" stop-color="#006c96"/></linearGradient><linearGradient id="Безымянный_градиент_112" x1="63.49" y1="398.77" x2="1633.89" y2="398.77" gradientUnits="userSpaceOnUse"><stop offset="0.04" stop-color="#c3eee5" stop-opacity="0.27"/><stop offset="0.27" stop-color="#bbe8e1" stop-opacity="0.3"/><stop offset="0.48" stop-color="#a1d6d5" stop-opacity="0.4"/><stop offset="0.68" stop-color="#75b7c2" stop-opacity="0.56"/><stop offset="0.87" stop-color="#398da6" stop-opacity="0.79"/><stop offset="1" stop-color="#03678e"/></linearGradient><linearGradient id="Безымянный_градиент_111" x1="59.59" y1="396.21" x2="1656.84" y2="396.21" gradientUnits="userSpaceOnUse"><stop offset="0.04" stop-color="#b4dcd6" stop-opacity="0.33"/><stop offset="0.3" stop-color="#aad5d1" stop-opacity="0.37"/><stop offset="0.53" stop-color="#8cc0c4" stop-opacity="0.49"/><stop offset="0.75" stop-color="#599cac" stop-opacity="0.68"/><stop offset="0.97" stop-color="#126b8c" stop-opacity="0.95"/><stop offset="1" stop-color="#066286"/></linearGradient><linearGradient id="Безымянный_градиент_110" x1="54.48" y1="393.76" x2="1680.59" y2="393.76" gradientUnits="userSpaceOnUse"><stop offset="0.04" stop-color="#a6cbc6" stop-opacity="0.4"/><stop offset="0.31" stop-color="#9cc4c2" stop-opacity="0.44"/><stop offset="0.55" stop-color="#7eafb4" stop-opacity="0.55"/><stop offset="0.78" stop-color="#4d8c9e" stop-opacity="0.74"/><stop offset="1" stop-color="#095d7f"/></linearGradient><linearGradient id="Безымянный_градиент_109" x1="48.54" y1="391.42" x2="1705.17" y2="391.42" gradientUnits="userSpaceOnUse"><stop offset="0.04" stop-color="#98bab6" stop-opacity="0.47"/><stop offset="0.31" stop-color="#90b4b2" stop-opacity="0.5"/><stop offset="0.55" stop-color="#76a2a7" stop-opacity="0.6"/><stop offset="0.77" stop-color="#4a8493" stop-opacity="0.76"/><stop offset="0.99" stop-color="#0e5978" stop-opacity="0.99"/><stop offset="1" stop-color="#0c5877"/></linearGradient><linearGradient id="Безымянный_градиент_108" x1="42.47" y1="389.14" x2="1730.25" y2="389.14" gradientUnits="userSpaceOnUse"><stop offset="0.04" stop-color="#89a8a7" stop-opacity="0.53"/><stop offset="0.31" stop-color="#82a3a4" stop-opacity="0.56"/><stop offset="0.55" stop-color="#6b9399" stop-opacity="0.65"/><stop offset="0.78" stop-color="#447887" stop-opacity="0.8"/><stop offset="1" stop-color="#0f536f"/></linearGradient><linearGradient id="Безымянный_градиент_107" x1="36.41" y1="387.49" x2="1755.83" y2="387.49" gradientUnits="userSpaceOnUse"><stop offset="0.04" stop-color="#7b9797" stop-opacity="0.6"/><stop offset="0.32" stop-color="#749294" stop-opacity="0.63"/><stop offset="0.56" stop-color="#60848a" stop-opacity="0.71"/><stop offset="0.8" stop-color="#3d6b7a" stop-opacity="0.84"/><stop offset="1" stop-color="#134e67"/></linearGradient><linearGradient id="Безымянный_градиент_106" x1="30.34" y1="405.87" x2="1781.86" y2="405.87" gradientUnits="userSpaceOnUse"><stop offset="0.04" stop-color="#6d8687" stop-opacity="0.67"/><stop offset="0.33" stop-color="#678284" stop-opacity="0.69"/><stop offset="0.58" stop-color="#54747c" stop-opacity="0.76"/><stop offset="0.83" stop-color="#355e6e" stop-opacity="0.88"/><stop offset="1" stop-color="#164860"/></linearGradient><linearGradient id="Безымянный_градиент_105" x1="24.27" y1="440.58" x2="1808.28" y2="440.58" gradientUnits="userSpaceOnUse"><stop offset="0.04" stop-color="#5e7478" stop-opacity="0.73"/><stop offset="0.35" stop-color="#587075" stop-opacity="0.75"/><stop offset="0.62" stop-color="#47646d" stop-opacity="0.82"/><stop offset="0.88" stop-color="#2b5060" stop-opacity="0.93"/><stop offset="1" stop-color="#194358"/></linearGradient><linearGradient id="Безымянный_градиент_104" x1="18.2" y1="475.44" x2="1835.05" y2="475.44" gradientUnits="userSpaceOnUse"><stop offset="0.04" stop-color="#506368" stop-opacity="0.8"/><stop offset="0.37" stop-color="#4b5f66" stop-opacity="0.82"/><stop offset="0.67" stop-color="#3b545e" stop-opacity="0.88"/><stop offset="0.96" stop-color="#214152" stop-opacity="0.98"/><stop offset="1" stop-color="#1c3e50"/></linearGradient><linearGradient id="Безымянный_градиент_103" x1="12.14" y1="510.3" x2="1862.13" y2="510.3" gradientUnits="userSpaceOnUse"><stop offset="0.04" stop-color="#425258" stop-opacity="0.87"/><stop offset="0.43" stop-color="#3d4f56" stop-opacity="0.88"/><stop offset="0.77" stop-color="#2f4450" stop-opacity="0.94"/><stop offset="1" stop-color="#1f3949"/></linearGradient><linearGradient id="Безымянный_градиент_102" x1="6.07" y1="545.09" x2="1889.49" y2="545.09" gradientUnits="userSpaceOnUse"><stop offset="0.04" stop-color="#334049" stop-opacity="0.93"/><stop offset="0.56" stop-color="#2f3d47" stop-opacity="0.95"/><stop offset="1" stop-color="#223441"/></linearGradient></defs><g id="Слой_2" data-name="Слой 2"><g id="Слой_2-2" data-name="Слой 2"><g class="cls-1"><path class="cls-2" d="M1574.23,106.12c19.77,119.31,34.24,240.14,36.37,361.17.75,42.39,0,84.95-4.4,127.14-2.93,28-7,57-17.44,83.32-13.06,32.84-45.64,54-74.58,71.78-11.91,7.34-24.15,13.94-36.61,20.28-26.9,13.67-54.78,26.49-85.11,29.88C1336,806,1280.4,782.69,1238,746.55c-43.55-37.09-80.54-82-110.39-130.71-54.51-88.89-83.66-189.52-126.34-284-22.1-48.91-48.24-96-81-138.6-24.12-31.33-52.35-56.66-88.94-72.72-51.8-22.71-110.7-27.48-166.63-24-29.92,1.84-59.54,6.77-88.16,15.79-29.88,9.42-58.36,22.76-86.17,37.08-38.78,20-76.63,41.73-114.71,63C323,241.7,270.44,271.22,216.68,298.3c-22.67,11.42-49.17,27.34-75.66,22C104,312.75,88.2,272.45,80.41,239.73c-12-50.43-12-103.77-10.1-155.29,1-27.71,3-55.38,5.5-83,.17-1.92-2.83-1.91-3,0-5.17,56.87-8.51,114.35-4.73,171.43,2.68,40.44,7.58,86.85,31.15,121.24,14.45,21.08,38.48,34.24,64.29,29.25,12.8-2.47,25-8.19,36.71-13.69,25.54-12,50.37-25.52,75.21-38.87,50.37-27.09,100.21-55.13,150.17-83,33.72-18.79,67.53-37.73,102.73-53.67,27.78-12.58,56.6-22.75,86.6-28.55,42.61-8.24,87.27-9.2,130.3-4.2,53.29,6.19,106.2,24.17,145.3,62.14,15,14.6,27.81,31.53,39.93,48.55A640.11,640.11,0,0,1,974.07,283c49.42,92.93,77.44,195.33,125.48,288.9,25.31,49.31,56.33,95.56,94.18,136.14,35.89,38.46,76.75,73.61,128.38,88.11,27.8,7.8,57.62,9.95,86,4,28.17-5.92,54-19,79.4-32.08,32.63-16.72,67.38-37.74,91-66.21,13.72-16.54,19.32-39.26,23.59-59.83,7.19-34.68,9.78-70.33,11-105.67,3.94-111.09-6.39-222.83-21.18-332.82q-6.63-49.23-14.79-98.25c-.32-1.9-3.21-1.09-2.9.8Z"/><path class="cls-3" d="M1602.56,120.52c18,111.08,30.29,223.59,30.37,336.22,0,47.92-1.76,96.31-9.65,143.65-4.54,27.29-10.24,59.85-28.1,82.1-13.27,16.52-31.66,29.42-49.24,40.92-11.87,7.77-24.13,15.33-37,21.46-21,10-41.93,20.34-64.5,26.25-27.69,7.24-56.75,6.39-84.34-1-48.74-13-87-46.29-121.1-82-36.91-38.72-68-82.4-94.36-128.91-50.81-89.8-81.12-189.55-133.5-278.5-22.26-37.79-48.36-75.84-80.93-105.59-31.43-28.7-71-45.75-112.5-53.93-46.93-9.26-96.14-9.15-143.44-2.53-45.54,6.38-88.63,21.57-130.13,41-49.63,23.27-97.66,50.13-145.31,77.17Q322,280.51,246.09,325.79c-17.59,10.45-35.09,21.11-53,31-9.49,5.26-19.3,10.77-29.81,13.72-22.29,6.26-44.59-5.71-57.92-23.36C84.6,319.71,77.73,282.4,73.15,249.12c-6.73-49-7.22-98.75-6.34-148.07.49-27,1.56-53.93,2.93-80.87.1-1.93-2.9-1.92-3,0-2.77,54.41-4.51,109-2.14,163.46,1.81,41.78,5.28,85,18.44,124.93,8.13,24.67,21.6,51.69,47,62.27,18.71,7.79,35.47,3.56,52.8-5.15,15.28-7.67,29.94-16.62,44.64-25.33Q264.06,318.65,300.7,297c50.86-30.1,102.19-59.55,154.07-87.84,47-25.65,94.77-51.77,145.5-69.42,43.25-15.06,88.61-22,134.34-22.55,54-.67,110.45,6.94,157.93,34.14,35.51,20.34,62.15,51.81,85.85,84.59,63.12,87.27,94.93,190.68,143,286,23.14,45.9,49.9,90,82.13,130.16,30.87,38.42,66.72,77.34,110,102,44.47,25.32,96.9,32.41,145.66,15.79,34.54-11.77,68.24-29.52,98.12-50.44,15.08-10.55,31.1-22.36,42-37.38,7.08-9.71,11.73-21.16,15.49-32.5,12.14-36.56,16.16-76,18.74-114.23,7.35-109.34-1.3-219.92-15.35-328.39q-5.65-43.68-12.72-87.15c-.31-1.9-3.2-1.09-2.9.8Z"/><path class="cls-4" d="M1630.89,134.92C1648.38,246.23,1659.3,359.27,1655,472c-1.76,45.6-5.46,91.92-16.81,136.26-3.87,15.12-8.66,30.26-16,44.09-7.68,14.46-19.18,25.25-32,35.31a346.42,346.42,0,0,1-103.84,55.61c-53.12,17.75-108,5.65-152.75-26.74-20.6-14.92-38.87-33-56.31-51.45a687.16,687.16,0,0,1-54-64.63c-31-42-57.56-87.27-81-133.9C1096.41,375.11,1058,279.31,985.12,205c-25.61-26.13-56-45.62-90.92-57-47.45-15.53-98.87-17.52-148.32-13.51a469.23,469.23,0,0,0-136.8,32.39c-50.13,20-98.28,45.6-145.61,71.43-52,28.39-103.47,58.29-153.58,89.94-40,25.27-79.08,51.84-118.78,77.54-16.32,10.56-32.39,20.95-52.45,15.67-24-6.32-38.38-28.85-47.32-50.45-13.57-32.8-18.84-69.06-22.52-104.13-5.07-48.38-6.17-97.15-6.2-145.77,0-27.37.41-54.75,1.06-82.12,0-1.93-3-1.93-3,0-1.29,54.81-1.82,109.7.6,164.49,1.85,41.87,5.06,84.16,14.13,125.18,5.91,26.73,14.36,55.76,32.9,76.73,12.1,13.68,31.11,23.69,49.81,20.13,8.64-1.65,16.61-6.14,24.08-10.61,13.8-8.25,27-17.53,40.35-26.48q71.7-48.08,145.91-92.25c52-30.88,104.73-60.5,158.67-87.94,45.78-23.29,92.58-45.43,142.52-58.23a468.56,468.56,0,0,1,143.7-13.45c51.16,3.09,102.76,16,144,47.59,36.69,28.11,66,67,90.56,105.72,28,44.09,50,91.53,72.46,138.58,46.67,97.7,102.1,190.87,181.61,265.64,34.27,32.22,74.43,56.42,122.15,60.45,42.9,3.62,85.93-13.83,122.79-34.59,29.77-16.78,63.58-37.29,79.31-68.9,15.8-31.77,21.62-68.65,25.91-103.5,13.33-108.34,6.56-219.42-6.41-327.45q-5.18-43.07-12-85.91c-.29-1.9-3.19-1.09-2.89.8Z"/><path class="cls-5" d="M1659.22,149.32c17.14,112.7,26.6,227.72,16.23,341.55-3.89,42.71-9.88,87.07-26.09,127.1-5.22,12.9-11.79,25.89-21.52,36-15.64,16.28-35.44,29-54.86,40.34-39.43,22.91-85.5,39.24-131.39,31.48-51.49-8.71-90.18-45.57-124.64-82.12-38.64-41-72.35-86.17-102.81-133.49-28-43.43-51.38-89.28-76-134.63-24.15-44.45-50.4-88-83.86-126.11-26.56-30.27-56.77-58-93.85-74.57-46.47-20.83-98.88-25.4-149.25-23.12C763.77,153.91,716.84,162,671.79,177,622.05,193.6,575,217.25,528.35,241c-51.52,26.28-101.73,54.92-151.08,85.07-48.49,29.62-95.88,61.11-141.7,94.73-14.69,10.78-29.1,21.95-43.75,32.8-8.41,6.24-17,12.9-26.68,17.14-16.46,7.24-35.2.91-48-10.71-17.84-16.2-27-40.7-33.61-63.26C73.2,361.43,68.46,324.48,65,287.9c-4.54-48.45-6.21-97.15-7-145.79-.45-28.15-.54-56.3-.44-84.44a1.5,1.5,0,0,0-3,0c-.36,97.58-1.12,197.41,15.64,293.88,5.06,29.15,11.8,59.29,26,85.54,9,16.6,22.06,32.2,40.76,37.73,18.2,5.39,32.47-1.66,47.28-12,35-24.49,68.38-51.09,103.68-75.21C385.33,321,488,261.43,595,211.53c46.57-21.74,94.7-39.85,145.44-49,51.22-9.21,105.4-11.95,156.86-3.22,44.73,7.58,85.52,25.83,119.31,56.18,39.51,35.47,71,78.41,97.81,124,26.37,44.76,48.81,91.71,75.11,136.52,27.61,47.06,58.84,92.43,93.84,134.3a743.3,743.3,0,0,0,59.12,63.31c16.42,15.53,34.23,29.89,54.42,40.24,22.36,11.47,47.94,17.91,73.14,17.42,27.92-.55,52.31-11.41,77.88-21.17,13-5,25.06-12,36.85-19.36,17-10.63,35.3-22.61,48.35-38.1,21-24.94,29.37-60.53,35.58-91.68,10.28-51.54,13.46-104.55,14-157,.54-56-3-112-9-167.6-3.16-29.36-7.06-58.64-11.5-87.83-.28-1.91-3.18-1.1-2.89.79Z"/><path class="cls-6" d="M1687.55,163.73c16.65,113.7,24.71,231,6.41,345.06-6.27,39-15,81.5-36.94,115.1-10.7,16.36-26.47,28-42.65,38.57-14.26,9.31-29.92,19.57-46.11,25.25-25.81,9-50.6,19-78.63,16.86-27.61-2.1-53.55-12.5-75.88-28.62-21.11-15.23-39.28-34.43-57-53.39-20.13-21.56-39.27-44-57.54-67.19A1334.42,1334.42,0,0,1,1205,419.72c-26.11-43.14-51.2-87.09-82.59-126.7-27.12-34.21-59.33-66.9-97.26-89.14-44.4-26-96.43-34.25-147.28-34.07a554.89,554.89,0,0,0-142.12,19C686.15,202.17,639,223,592.91,245.41,491.37,294.72,392.78,350.69,301.14,416.77,264.24,443.39,229,471.55,194,500.65c-14,11.69-29.68,26.77-49.42,23.65-43.54-6.89-58.54-65.55-66.79-101.1-19.72-85-22.16-174.55-24.63-261.44Q52,119.1,51.54,76.41a1.5,1.5,0,0,0-3,0c1.14,99.6,2.57,200.44,17.34,299.14,4.62,30.89,10.55,62.14,21.79,91.39,7.06,18.39,16.63,37.54,32.57,49.83,11.58,8.93,27.94,14.21,42.2,9.05,8.6-3.11,16.08-8.9,23.19-14.49,12.55-9.88,24.56-20.46,36.86-30.64,85.27-70.53,179.2-131,276.32-183.84,52.55-28.6,106.41-56,161.73-78.92,48.62-20.11,99.13-34.54,151.44-40.83,53.24-6.41,109.08-7.5,161,7.67,44.62,13,81.47,39.88,113.9,72.54,37.78,38,66.91,83.11,94.47,128.81,28,46.4,56.39,92,88.57,135.64,34,46.17,70.73,90.88,112,130.85,35.52,34.42,80.49,60.91,131.86,54.24,21.12-2.75,42.46-10,61.74-19A315,315,0,0,0,1629,656c13.23-9.74,24.54-20.36,33-34.47,9-15,15.39-31.68,20.52-48.4,15-48.8,20.56-100.56,23.24-151.36,3-56.59.75-113.37-4.55-169.77-2.8-29.77-6.49-59.45-10.83-89-.27-1.9-3.17-1.1-2.89.8Z"/><path class="cls-7" d="M1715.88,178.13c16,114.21,22.72,234.52-6,347.36-9.08,35.64-22.11,76.79-51.27,101.38-17.84,15-38.69,27.23-59.74,37.2-19.95,9.44-43,16.62-65,17.74-58.33,3-99.48-39.12-135.79-78.62-40.69-44.28-78.44-91.13-115.33-138.59-32.27-41.51-59.76-86.43-91.38-128.41-29.75-39.48-63.74-75.57-104.76-103.49C1004.92,177.12,898,181.82,805.08,201c-49.19,10.16-96.4,27.34-142.22,47.7-54.28,24.13-107.73,50.82-159.68,79.61C410.35,379.77,320.72,438.66,240.25,508c-14.28,12.32-28.14,25.09-42,37.86-8.84,8.12-17.66,16.74-27.79,23.28-13.45,8.68-28.63,8.06-42.23-.16-15.06-9.09-24.77-25.21-32-40.78-11.4-24.65-17.93-51.55-23.2-78.08-17.42-87.76-21.45-178.41-24.91-267.6q-1.7-43.68-2.66-87.39c0-1.93-3-1.94-3,0C44.86,197.25,48,300.1,61.94,401.38c4.47,32.37,10.08,64.85,19.65,96.15,6.18,20.2,14,40.92,27.2,57.69,9.14,11.64,21.39,20.86,36.33,23,18.08,2.61,31.82-9.26,44.54-20.53,32.91-29.15,64.82-59,99.7-85.83q65-50.07,134.42-93.3,73.7-45.94,151.49-84.69c50.91-25.34,102.18-50.64,156-69.3A609.39,609.39,0,0,1,889.8,192.68c53.45-3.65,109.06-.66,158.49,21.77,94.67,42.94,149.14,136.61,206.76,217.85,33.77,47.61,71,93.22,109.15,137.38,19,22,38.39,43.89,59,64.38,16.9,16.78,35.71,32.29,58.06,41.16A126.71,126.71,0,0,0,1559,681a225.84,225.84,0,0,0,51.93-19.58c19.4-10.18,39.64-21.88,55.33-37.38,11.69-11.54,20.18-26.15,27-40.95,20.33-43.89,29-93.15,34.2-140.89,6.35-57.94,5.88-116.34,1.37-174.4-2.35-30.25-5.82-60.4-10-90.45-.26-1.9-3.15-1.09-2.89.8Z"/><path class="cls-8" d="M1744.16,192.13c15.09,113.33,20.51,236.63-20.7,345.47-7.65,20.21-17.27,40.28-30.88,57.21-13.78,17.16-32.84,29.07-51.92,39.58-17.88,9.83-36.38,17.55-56.34,22-29.16,6.48-58.56,1.31-84.1-14.28-22.35-13.64-39.59-34-56.82-53.33q-31.37-35.22-62.13-71c-37.9-43.87-76-87.35-112-132.82-61.23-77.36-132.14-155.08-234-173-50.35-8.86-102.87-5.33-153.22,1.88-51.6,7.39-101.77,21.54-150.23,40.63-52.39,20.63-103.21,45.55-153.41,71Q504.78,362.67,435,406.84c-84,53.14-162.15,113.74-232.51,184-13.06,13-30.3,35.59-50.77,35.82C138.21,626.78,126,619.56,117,610c-13-13.78-21-31.93-27.38-49.5-9.61-26.52-15.69-54.29-20.69-82-16.33-90.59-21.61-183.29-26-275.08q-2.11-44.73-3.53-89.48c-.07-1.93-3.07-1.93-3,0,3.45,104.92,7.89,210.36,21.74,314.51,4.43,33.34,9.85,66.69,18.3,99.27,5.72,22.08,12.73,44.39,24,64.33,13.24,23.42,40.54,49,68.78,32.27,9.33-5.52,17.24-13.46,24.94-21C207,590.78,219.51,578,232.49,565.6c41.86-39.9,87.32-76.52,134.49-110C456.29,392.32,552.52,340,651.31,293.11,701,269.55,751.65,247.7,804.73,233a650.5,650.5,0,0,1,155.81-23c55.26-1.44,109.74,7.6,158,35.47,46.38,26.77,84.55,63.82,118.72,104.65,16.87,20.17,32.91,41,49.34,61.53,18.4,23,37.84,45,57.12,67.27,40,46.08,78.48,94.19,121.17,137.79,17.68,18.06,36.77,31.72,60.76,39.91,12.61,4.31,25.15,6.52,38.51,5.7,13.92-.84,26.45-5,39.74-8.69,18-4.93,34.66-14.13,50.51-23.78,16.84-10.25,32.11-21.72,43.9-37.65,27.77-37.52,40.58-86.07,48.87-131.25,10.61-57.88,12.42-116.89,9.08-175.55-1.78-31.21-5-62.31-9.12-93.3-.25-1.88-3.26-1.91-3,0Z"/><path class="cls-9" d="M1772.49,206.53c7.77,62.12,11.65,125.24,5,187.65-5.76,54.61-19,111.57-47.45,159.11-11.3,18.86-25.21,35.27-43.5,47.62-17.73,12-38.67,24.63-59.65,29.87-13.26,3.32-26.17,7-40,6.94-14.22,0-26.15-4.33-39-10-25.33-11.22-43.21-32.65-60.5-53.53-39.21-47.38-80.11-93.5-123.37-137.24-38.54-39-74-81.19-114.71-117.95-36.32-32.78-78-60.75-124.32-77.16-51-18.06-105.36-18.38-158.65-13.85A699.35,699.35,0,0,0,810,259.24c-51,16.52-100,38.6-148.34,61.69-94.08,44.94-184.73,95-270.4,154.56a1155.54,1155.54,0,0,0-136,110.74c-25.9,24.61-48.7,52.51-75,76.62-12.14,11.13-25.33,18.08-41.71,12.32-12.65-4.45-22.25-14.78-29.52-25.68-11.3-16.92-18.53-36.44-24.5-55.76-8.72-28.23-14.62-57.3-19.55-86.4C49.13,413.8,42.79,318.59,37.64,224q-2.49-45.65-4.3-91.33c-.08-1.92-3.08-1.93-3,0,4.39,107.78,10,215.92,24,322.94C61.85,513.49,70.09,575,94.36,628.76,105,652.2,124,682.34,153.69,680.45c19.8-1.26,35.4-21.66,47.79-34.86,32.92-35.07,66.71-68.85,103.67-99.73C386.41,478,475.37,420,568.91,370.43c53.66-28.44,108.68-55.1,164.53-79,50-21.39,101.62-39,155.07-49.61,53.85-10.65,110.93-16.84,165.81-12,55.69,5,107.07,26.35,152.46,58.55,46,32.63,83.42,75.09,121.76,116,42.32,45.18,85.85,88.85,126.3,135.79,32.93,38.21,65.63,91.73,120.1,99.6,20.91,3,43.85-2,63.3-9.76,20.78-8.33,41.45-19.46,59.12-33.24,35.31-27.56,54.18-74.2,66.38-115.86,16.83-57.52,21.6-117.81,19.73-177.52-1-32.42-4-64.75-8-96.94-.24-1.89-3.24-1.91-3,0Z"/><path class="cls-10" d="M1800.82,220.94c7.4,63.76,10.39,129-1.37,192.46-9.8,52.84-29.68,108.51-67,148.43-17.07,18.28-38.88,30.93-61.53,41.12-22.47,10.12-49.86,17.79-74.28,11.14-28.09-7.65-48.62-30.6-65.54-52.9s-34.16-44.28-52.78-65.26c-40.17-45.25-86-84.62-131-124.82-42.09-37.55-86.23-73.44-138.06-96.71-49.74-22.34-101.76-31.9-156.25-30.3a757.72,757.72,0,0,0-157.22,21.11C845,277.64,795.92,296,748.06,316.89c-55.78,24.4-111,50.85-164.73,79.44C495.12,443.25,410,497.62,333.15,561.71c-40.67,33.93-79.06,70.11-114.36,109.62-10.57,11.83-20.78,24-31.73,35.51-6.9,7.24-14.43,15-23.75,19.12-26.9,11.73-49.5-17.13-60.33-37.57-24.44-46.11-33.56-101.07-41.85-152-15.7-96.38-23-194.18-28.86-291.57q-2.82-46.73-5-93.47c-.09-1.93-3.09-1.94-3,0C29.51,262,36.14,372.89,50.35,482.78c7.92,61.28,16.74,124.91,39.15,182.89,9.45,24.44,24.21,57,52.28,64.36,15.62,4.08,28.36-2.85,39.66-13.35,10.14-9.42,19.09-20.14,28.22-30.51,14.39-16.35,29-32.5,44.22-48C327.56,563,413.14,500,503,445.47c52-31.58,105.84-59.67,160.63-86.06,52.19-25.14,104.75-49.87,159.42-69.22A744.74,744.74,0,0,1,987.46,252c57.26-6.51,116.2-9,172.16,7.08,55.37,15.95,104.67,46.28,148.93,82.6,22.35,18.33,43.64,37.89,65.14,57.2,23.5,21.1,47.37,41.68,69.63,64.12,21.16,21.33,41.14,43.8,60.08,67.11,18.1,22.29,33.54,48.58,56,66.9,18.58,15.15,40.22,24.22,64.39,22,22-2,42.48-9.86,62-19.89,21.45-11,40.36-24.41,55.79-43.08,15.72-19,27.86-40.83,37.49-63.48,23.31-54.8,31.45-114.56,31.25-173.77-.11-32.72-2.69-65.37-6.46-97.86-.22-1.9-3.22-1.92-3,0Z"/><path class="cls-11" d="M1829.15,235.34c6.84,64.75,8.94,131.83-9.61,195-15.5,52.77-46.4,108-94.54,137.34-22.65,13.81-48.15,25.34-74.86,27.67-28.54,2.48-51.14-12.72-68.38-34.4-18-22.57-32-47.93-50.27-70.35a508.6,508.6,0,0,0-59.53-61.4c-22.87-20-47.54-37.8-72-55.76s-49.13-35.32-75.17-50.7c-49.41-29.18-104.15-50.29-161.31-57.44-54.85-6.87-112.09-1.43-166.48,7s-107.79,23.08-159.44,42.42c-53.1,19.88-104.46,44.09-155.55,68.58-54.67,26.2-108.37,54.19-160.25,85.58-86.58,52.39-168.85,112.84-240.91,184.09-30.72,30.39-58,63.48-86.14,96.13-11.68,13.52-26.43,32.33-46.49,30-25.82-3-40.92-31.21-50.34-52.3-22.57-50.55-32.14-107.4-40.73-161.68C41.49,465.94,33.4,365.6,26.82,265.53q-3.12-47.67-5.61-95.4c-.11-1.92-3.11-1.93-3,0,6,113.32,13.52,226.81,28,339.4C54.56,574,64,640,85,701.78c9,26.5,21.72,61.37,48.15,75.52,10.1,5.41,22.1,6.78,32.65,1.81,9.07-4.28,16.44-11.84,23.16-19.1,10.9-11.77,20.91-24.37,31.25-36.63,68.79-81.54,150-150.91,238.27-210.53C554,448.39,656.89,396.28,761.89,349.27c51.61-23.1,104.38-43.78,159.13-58.15,55.43-14.54,112.38-22.43,169.58-25.15,62.47-3,123.59,7.6,181,32.66,56.74,24.78,106.54,62,155.84,98.9,50,37.39,94.77,80.16,129.41,132.43,14.61,22.06,28.45,44,51,58.86,19.16,12.62,42.84,11.2,64.23,5.77,49.59-12.58,90.13-46.71,117-89.25,32.37-51.21,45.82-110.94,47.7-170.95,1-33.09-1.17-66.16-4.64-99-.2-1.9-3.21-1.92-3,0Z"/><path class="cls-12" d="M1857.48,249.74c6.11,65.33,7.47,134.59-20.44,195.56-25.76,56.27-71.73,103-130.76,123.25-24.34,8.36-54.42,12-74.51-7.32-21.47-20.63-31.91-48.91-48-73.43-31-47.39-74.61-82.29-122.53-111.48-53.85-32.8-110.78-61.87-171.93-78.32-56.13-15.1-112.67-19.19-170.52-15.4-59.07,3.87-117.57,12.87-174.65,28.75-53,14.74-104.17,35-154.34,57.35C683.67,416,579.1,468,482.34,532.68c-86.69,58-168.09,125.1-236.34,204.24-22.37,25.94-41.71,55.74-66.44,79.51-10.73,10.31-23.64,16.92-38.4,11.76C116,819.41,102.67,788,93.78,765.41c-21.12-53.72-31.23-112-40.14-168.79-16-102.13-24.92-205.4-32.18-308.48q-3.5-49.6-6.32-99.27c-.11-1.91-3.11-1.93-3,0C18.9,305.93,27.32,423.12,42.47,539.43c8.73,67,18.75,135.06,39,199.76,9.08,29,20.74,65.11,45.87,84.64,7.33,5.69,16.23,9.5,25.63,9.33,20.87-.37,36.06-21.68,47.87-36.19,28.9-35.5,57.3-71,89.45-103.69,44.11-44.84,92.42-85.72,143.21-122.77C518.54,508.46,610,457,704.86,411.61c107.23-51.32,215.67-99.42,334.07-117.55,59.22-9.07,121.27-14.31,180.93-6.84,66.93,8.37,130.4,31.42,189.75,63,55.05,29.27,110,62.46,150.49,110.77,19.59,23.38,32.67,49.87,48.41,75.74,11.29,18.57,26.8,37.25,49.4,40.81,24.17,3.79,49.14-4.81,70.74-14.82,25.9-12,48.34-29.13,67.49-50.27,41.46-45.76,62.51-102.82,66.92-163.95,2.37-32.91.49-65.94-2.58-98.74-.18-1.9-3.18-1.92-3,0Z"/><path class="cls-13" d="M1885.81,264.14c5.24,66,5.27,135.77-34,192.33a260.15,260.15,0,0,1-68.92,67.26c-25.79,17.17-57.58,32-89.18,31.68-14.62-.18-27.66-5.17-36.82-16.81-8.54-10.84-14.14-23.66-19.46-36.28-10.36-24.56-21.74-48-38.91-68.55-37.92-45.47-93.64-72-148-92.33a673.35,673.35,0,0,0-197.24-41.25c-58.66-3.38-118.52,1.38-176.51,10.44-115.94,18.1-223.11,63.29-328.55,113.05-99.92,47.14-197.15,99-287,163.57C372.2,651.13,291.54,725.33,224.44,812c-10.59,13.68-20.79,27.68-31.78,41-7.06,8.58-14.67,17.74-24.37,23.46-10.16,6-21.82,5.73-32,.11C112,863.15,99.74,830.54,90.83,806.08c-20.7-56.9-31.35-117.63-40.68-177.24C33.65,523.44,24,417,16.06,310.64q-3.84-51.49-7-103c-.12-1.92-3.12-1.93-3,0C13.55,328.3,22.79,449.07,38.57,569c9.22,70.12,19.86,141,39.92,209,9.28,31.46,20.55,68.68,44.7,92.38,6.51,6.38,14.44,11.6,23.56,13.2,17.25,3,30.68-8.65,41.45-20.66,26.09-29.1,47.81-62.06,73.28-91.75,41.13-48,87.18-91.56,136.08-131.52,79.27-64.78,166.33-119.69,257.09-166.88,58.17-30.25,117.86-58.21,178-84.37,54.07-23.52,109.41-44.28,166.62-58.82,124.77-31.73,259.58-38.56,384.8-5.93a653.13,653.13,0,0,1,99.81,34.71c30.2,13.38,59.76,28.92,85.15,50.27a209.85,209.85,0,0,1,50.19,61.13c12.77,23.8,19.17,53,37.51,73.47,16.28,18.19,42.85,17.33,64.76,11.78,28.53-7.23,55.14-21.73,78.25-39.75,23.45-18.28,44.43-40.48,60.24-65.73,16.07-25.66,24.91-55.15,28.83-85,4.38-33.29,2.66-66.95,0-100.31-.15-1.91-3.16-1.92-3,0Z"/><path class="cls-14" d="M1914.14,278.55c2.39,37.89,4.62,76.75-6.25,113.65-9.11,30.95-26.83,55.48-50.4,77a300.33,300.33,0,0,1-77.13,51.41c-22.38,10.22-50.17,19.75-75,13.61-30.7-7.62-33.41-45.72-41.54-70.84-14.37-44.34-44.27-76.86-85.6-98.2-55.18-28.49-119.21-38.8-180.45-44.27-52.87-4.72-106.12-5.07-159.13-2.68-58.39,2.64-116.54,8.85-173.71,21.31-65.14,14.2-128.11,36.19-189.46,62.1C748.94,455.1,623.8,515.94,509.86,593.11c-93.32,63.21-180.31,137.5-251.73,225-22.3,27.32-42.08,56.51-64,84.12-10.41,13.12-24.08,30.69-42.79,29.69-25.14-1.35-40.48-31.17-49.65-50.81C75.63,825.29,64,762,53.39,701.85,32.54,583.91,21.09,464.28,11.57,345Q6.85,285.69,3,226.36c-.12-1.91-3.12-1.93-3,0C9,363.05,20,499.94,39.74,635.55,50.43,708.86,62.32,784,87.46,854c9.5,26.47,22.87,63.87,50.27,77.28,34.67,17,61.34-30.13,77.86-52.65,26.93-36.69,54.91-72.41,86-105.75,47.09-50.59,99.46-96.13,154.62-137.71,99.77-75.21,209.66-133.86,322.55-186.72,64.15-30,128.91-59.19,196.31-81.24a930,930,0,0,1,211.64-42.7,1343.24,1343.24,0,0,1,137.1-4.45c64.39,1.21,129.88,6.66,192,24.34,54.5,15.49,110,42.64,135.73,95.94,7.77,16.07,12.22,33.24,17.07,50.33,3.51,12.39,7.35,25.89,16.44,35.47,10.06,10.6,25,13.24,39.07,12.73,26.57-1,52.52-12,75.5-24.59,51.51-28.32,98.94-70.34,113.31-129.3,8.49-34.84,6.44-71,4.21-106.41-.12-1.92-3.12-1.94-3,0Z"/></g></g></g></svg>