<svg xmlns="http://www.w3.org/2000/svg" xmlns:xlink="http://www.w3.org/1999/xlink" viewBox="0 0 125.5 181.17"><defs><style>.cls-1{fill:#0e82c5;}.cls-2{fill:url(#Безымянный_градиент_4);}</style><linearGradient id="Безымянный_градиент_4" y1="43.36" x2="115.55" y2="43.36" gradientUnits="userSpaceOnUse"><stop offset="0.22" stop-color="#0e82c5"/><stop offset="1" stop-color="#2d2e83"/></linearGradient></defs><g id="Слой_2" data-name="Слой 2"><g id="Слой_1-2" data-name="Слой 1"><path class="cls-1" d="M19.63,149a.42.42,0,0,1,.47.46v2.7a.42.42,0,0,1-.47.46H13.91v13.86a.42.42,0,0,1-.46.46h-2.9a.42.42,0,0,1-.46-.46V152.63H4.36a.42.42,0,0,1-.46-.46v-2.7a.42.42,0,0,1,.46-.46Z"/><path class="cls-1" d="M26,149a.42.42,0,0,1,.46.46v6.65l-.16,5.27h.23l3.78-5.5,4.91-6.58a.83.83,0,0,1,.69-.3h2.83a.42.42,0,0,1,.46.46v17a.41.41,0,0,1-.46.46H35.93a.41.41,0,0,1-.46-.46v-6.75l.16-5.3H35.4l-4.67,6.78-4,5.43a.69.69,0,0,1-.53.3h-3a.41.41,0,0,1-.46-.46v-17a.42.42,0,0,1,.46-.46Z"/><path class="cls-1" d="M67.39,149a.42.42,0,0,1,.47.46v13.86h1.51a.45.45,0,0,1,.46.46v6.32a.41.41,0,0,1-.46.46H66.7a.42.42,0,0,1-.46-.46L66.08,167H54l-.2,3.13c0,.33-.16.49-.46.49H50.74a.41.41,0,0,1-.46-.46v-6.32a.41.41,0,0,1,.46-.46h1c.7,0,1.06-.4,1.16-1.15l1.67-12.71a.49.49,0,0,1,.47-.46Zm-9.31,3.62-1.28,9.81a2,2,0,0,1-.27.89H64v-10.7Z"/><path class="cls-1" d="M73.26,167a.42.42,0,0,1-.47-.46v-17a.45.45,0,0,1,.47-.46h12.9a.47.47,0,0,1,.46.46v2.7a.42.42,0,0,1-.46.46H76.61v13.86a.41.41,0,0,1-.46.46Z"/><path class="cls-1" d="M104.16,149a.42.42,0,0,1,.46.46v2.7a.41.41,0,0,1-.46.46H98.44v13.86A.42.42,0,0,1,98,167H95.08a.41.41,0,0,1-.46-.46V152.63H88.89a.41.41,0,0,1-.46-.46v-2.7a.42.42,0,0,1,.46-.46Z"/><path class="cls-1" d="M110.38,149a.41.41,0,0,1,.4.2l5.5,9.38h.26l4.67-9.25a.56.56,0,0,1,.56-.33h3.36a.36.36,0,0,1,.33.53l-9.68,17.11a.57.57,0,0,1-.56.3h-3.29c-.36,0-.39-.23-.26-.49l2.6-4.45-7.77-12.57c-.13-.23,0-.43.2-.43Z"/><path class="cls-1" d="M24.85,172.35a.15.15,0,0,1,.16-.16h.91a.15.15,0,0,1,.16.16v1.8a1.71,1.71,0,0,1,1.22-.47c1.56,0,2.6,1.16,2.6,2.95a2.64,2.64,0,0,1-2.6,3,1.52,1.52,0,0,1-1.22-.46V181a.14.14,0,0,1-.16.15H25a.14.14,0,0,1-.16-.15v-1.9a1.52,1.52,0,0,1-1.22.46,2.64,2.64,0,0,1-2.6-3c0-1.79,1-2.95,2.6-2.95a1.71,1.71,0,0,1,1.22.47Zm0,2.89a1.5,1.5,0,0,0-1.15-.41c-.94,0-1.45.71-1.45,1.8s.51,1.81,1.45,1.81a1.34,1.34,0,0,0,1.15-.58Zm1.23,2.62a1.34,1.34,0,0,0,1.15.58c.94,0,1.45-.8,1.45-1.81s-.51-1.8-1.45-1.8a1.5,1.5,0,0,0-1.15.41Z"/><path class="cls-1" d="M32,173.76a.13.13,0,0,1,.14.15V176l0,1.68h.08L33.39,176l1.57-2.1a.25.25,0,0,1,.22-.1h.9a.14.14,0,0,1,.15.15v5.44a.13.13,0,0,1-.15.15h-.9a.13.13,0,0,1-.15-.15V177.2l0-1.7H35l-1.5,2.17-1.27,1.74a.22.22,0,0,1-.17.09h-1a.14.14,0,0,1-.15-.15v-5.44a.14.14,0,0,1,.15-.15Z"/><path class="cls-1" d="M42.16,179.5a.14.14,0,0,1-.15-.15v-4.44H40.16l-.43,3.28a1.42,1.42,0,0,1-1.48,1.37,1.53,1.53,0,0,1-1.25-.5.15.15,0,0,1,0-.2l.44-.6a.13.13,0,0,1,.19,0,.67.67,0,0,0,.48.17.39.39,0,0,0,.41-.37l.62-4.16a.13.13,0,0,1,.14-.13h3.8a.13.13,0,0,1,.14.15v5.44c0,.1,0,.15-.14.15Z"/><path class="cls-1" d="M45.55,173.76a.14.14,0,0,1,.15.15V176l-.05,1.68h.07L46.93,176l1.57-2.1a.26.26,0,0,1,.22-.1h.91a.14.14,0,0,1,.15.15v5.44a.14.14,0,0,1-.15.15h-.91a.14.14,0,0,1-.15-.15V177.2l.06-1.7h-.08l-1.49,2.17-1.28,1.74a.21.21,0,0,1-.16.09h-1a.13.13,0,0,1-.15-.15v-5.44a.14.14,0,0,1,.15-.15Z"/><path class="cls-1" d="M54.85,178.83a2.8,2.8,0,0,1-2,.75,1.83,1.83,0,0,1-2-1.78c0-1.07.77-1.74,2.06-1.91l1.85-.24v-.13c0-.49-.51-.69-1.14-.69a3,3,0,0,0-1.83.5.21.21,0,0,1-.26,0l-.41-.58a.16.16,0,0,1,0-.24,3.86,3.86,0,0,1,2.48-.8c1.24,0,2.37.56,2.37,2v1.83a4.22,4.22,0,0,0,.13,1.19l.14.44c0,.09,0,.18-.1.21l-.74.24a.12.12,0,0,1-.18-.08l-.27-.66Zm-.16-2.15-1.85.3c-.58.1-.84.38-.84.75s.29.71,1,.71a2,2,0,0,0,1.73-.8Z"/><path class="cls-1" d="M61.82,179.5c-.09,0-.14-.05-.14-.15v-4.44H59.82l-.43,3.28a1.41,1.41,0,0,1-1.47,1.37,1.51,1.51,0,0,1-1.25-.5c-.06-.06-.05-.13,0-.2l.44-.6c.05-.06.11-.06.19,0a.63.63,0,0,0,.47.17.39.39,0,0,0,.41-.37l.62-4.16a.14.14,0,0,1,.14-.13h3.8a.14.14,0,0,1,.15.15v5.44a.13.13,0,0,1-.15.15Z"/><path class="cls-1" d="M70.91,176.43a1.35,1.35,0,0,1,1,1.32,1.76,1.76,0,0,1-2,1.75h-3c-.09,0-.14-.05-.14-.15v-5.44a.13.13,0,0,1,.14-.15h2.81a1.66,1.66,0,0,1,1.82,1.57,1.11,1.11,0,0,1-.62,1ZM68,176h1.75a.55.55,0,0,0,.59-.55.53.53,0,0,0-.59-.55H68Zm0,2.35H69.9c.5,0,.78-.24.78-.61s-.26-.61-.78-.61H68Z"/><path class="cls-1" d="M75.7,179.5a.13.13,0,0,1-.15-.15v-5.44a.15.15,0,0,1,.15-.15h4.13a.15.15,0,0,1,.14.15v.86c0,.1,0,.15-.14.15H76.77v4.43a.13.13,0,0,1-.15.15Z"/><path class="cls-1" d="M81,177.94a.82.82,0,1,1,0,1.64.82.82,0,0,1,0-1.64Z"/><path class="cls-1" d="M89.36,178.83a2.81,2.81,0,0,1-2,.75,1.84,1.84,0,0,1-2.06-1.78c0-1.07.77-1.74,2.07-1.91l1.85-.24v-.13c0-.49-.52-.69-1.15-.69a3,3,0,0,0-1.83.5.19.19,0,0,1-.25,0l-.41-.58a.15.15,0,0,1,0-.24,3.83,3.83,0,0,1,2.47-.8c1.24,0,2.37.56,2.37,2v1.83a3.89,3.89,0,0,0,.14,1.19l.13.44c0,.09,0,.18-.09.21l-.75.24c-.08,0-.14,0-.18-.08l-.26-.66Zm-.16-2.15-1.85.3c-.58.1-.85.38-.85.75s.3.71,1,.71a2.06,2.06,0,0,0,1.74-.8Z"/><path class="cls-1" d="M94.17,173.68c1.18,0,2.24.57,2.24,1.59a1,1,0,0,1-.6,1v.06a1.26,1.26,0,0,1,.89,1.3c0,1.22-1.17,2-2.63,2a3.47,3.47,0,0,1-2.6-1c-.08-.08-.08-.14,0-.21l.53-.61a.12.12,0,0,1,.21,0,2.41,2.41,0,0,0,1.91.68c1,0,1.4-.34,1.4-.88s-.31-.66-.84-.66H93.16a.14.14,0,0,1-.15-.15v-.83a.14.14,0,0,1,.15-.15H94.7c.35,0,.5-.16.5-.41s-.33-.55-1.09-.55a2.67,2.67,0,0,0-1.72.49c-.08.06-.14.06-.2,0l-.49-.62a.12.12,0,0,1,0-.18A3.72,3.72,0,0,1,94.17,173.68Z"/><path class="cls-1" d="M100.46,173.68a3,3,0,1,1-3,3A3,3,0,0,1,100.46,173.68Zm-1.79,3a1.79,1.79,0,1,0,1.79-1.81A1.73,1.73,0,0,0,98.67,176.64Z"/><path class="cls-1" d="M108.69,176.43a1.36,1.36,0,0,1,1,1.32,1.77,1.77,0,0,1-2,1.75h-3c-.09,0-.14-.05-.14-.15v-5.44a.13.13,0,0,1,.14-.15h2.82a1.65,1.65,0,0,1,1.81,1.57,1.1,1.1,0,0,1-.61,1Zm-3-.43h1.76a.56.56,0,0,0,.59-.55.53.53,0,0,0-.59-.55h-1.76Zm0,2.35h1.93c.5,0,.78-.24.78-.61s-.26-.61-.78-.61h-1.93Z"/><path class="cls-1" d="M111.68,72.39c-.08-.52-.17-1-.27-1.58.07.32.14.66.19,1S111.66,72.19,111.68,72.39Z"/><path class="cls-1" d="M73.59,48.53l-.06,6.2,0,3.08-.18,3.09c-.14,2-.22,4.11-.42,6.13-.44,4.08-.86,8.13-1.56,12.14A195.85,195.85,0,0,1,66,102.84a173.55,173.55,0,0,1-7.93,22.62,171.21,171.21,0,0,0,4.65-23.32,189.24,189.24,0,0,0,1.91-23.57c.13-3.93,0-7.83-.15-11.72C64.45,64.9,64.23,63,64.1,61l-.22-2.89-.39-2.88-.77-5.73-1.1-5.65-.56-2.82-.74-2.77L59,33.34l1-.14a45.75,45.75,0,0,1,10-.11c.79.08,1.56.16,2.33.28l.34,2.72.37,3.1.18,3.13Z"/><path class="cls-1" d="M109.81,111.56c-2.83,1.92-11.85,12-11.85,12-.65-.48-30.5-19.09-32.42-45.06C76.33,97.2,109.81,111.56,109.81,111.56Z"/><path class="cls-1" d="M119.47,87.84a53.17,53.17,0,0,0-.12-17.07l5.94-2.48A61.92,61.92,0,0,0,121.58,56a60.91,60.91,0,0,0-6.22-11.28l-6,2.53a51.75,51.75,0,0,0-3.86-4.61,43.87,43.87,0,0,0-3.59-3.5,52.61,52.61,0,0,0-5.08-4L99.32,29a61.1,61.1,0,0,0-23.81-9.42L73,25.78A54,54,0,0,0,57,26l-2.6-6.2a62.28,62.28,0,0,0-12.32,3.7A60.91,60.91,0,0,0,30.77,29.7l2.6,6.19a53.33,53.33,0,0,0-11.82,12l-6.22-2.55A61.39,61.39,0,0,0,5.71,69.05l6.17,2.53a53.49,53.49,0,0,0-.17,15.17c0,.47.12.94.2,1.41l-6,2.53a62.51,62.51,0,0,0,2.48,9.14c.37,1.07.79,2.14,1.24,3.2a59.71,59.71,0,0,0,6.2,11.26l5.94-2.49a53.43,53.43,0,0,0,11.43,11.53l-2.43,5.93a61.12,61.12,0,0,0,23.6,9.94l2.38-5.81a54.77,54.77,0,0,0,17.66.06l2.43,5.75a61.34,61.34,0,0,0,23.58-9.92l-2-4.74-.07-.15-.35-.86,0,0a55.32,55.32,0,0,0,11.82-12l2.08.86,3.76,1.52a61.37,61.37,0,0,0,9.72-23.69Zm-24.73,28a38.25,38.25,0,0,1-3.3,2.41l-.07,0a46.71,46.71,0,0,1-20.23,7.45,43.76,43.76,0,0,1-11.32,0c-.67-.08-1.36-.18-2-.3a46.33,46.33,0,0,1-21.54-9.7,44.6,44.6,0,0,1-7.06-7.08A46.43,46.43,0,0,1,22.79,98c-.08-.14-.13-.29-.2-.44A45.45,45.45,0,0,1,19.42,86c-.05-.32-.1-.62-.13-.94,0-.15,0-.3-.05-.47a13.46,13.46,0,0,1-.14-1.41c-.06-.62-.1-1.24-.13-1.86v-.08c0-.57,0-1.16,0-1.73,0-.4,0-.82,0-1.24s0-.82.05-1.24.05-.82.09-1.23.06-.83.11-1.24c.12-1.07.27-2.14.46-3.2a.61.61,0,0,1,0-.13c.08-.42.15-.84.25-1.26,0-.25.1-.5.17-.77.15-.71.33-1.41.52-2.1.25-.9.52-1.81.82-2.7.22-.6.44-1.22.67-1.82s.42-1.06.64-1.56A47.14,47.14,0,0,1,36.4,43.11a46.81,46.81,0,0,1,11.12-6.62A47.3,47.3,0,0,1,59,33.32h0c.32,0,.67-.1,1-.13a45.14,45.14,0,0,1,10-.12c.79.09,1.56.17,2.33.29h0a46.67,46.67,0,0,1,21.49,9C94.94,43.25,96,44.12,97,45a45.07,45.07,0,0,1,4.06,4.23q.45.52.87,1a46.16,46.16,0,0,1,6.62,11.12,48,48,0,0,1,2.82,9.33c.1.54.18,1.06.27,1.58s.16,1.06.21,1.58a4.34,4.34,0,0,1,.07.52c0,.28.07.57.09.85s0,.5.06.74c0,.48.07.95.09,1.44,0,1.17,0,2.33,0,3.49,0,.53,0,1-.08,1.59,0,.74-.12,1.46-.2,2.2,0,.36-.09.72-.15,1.09s-.1.73-.17,1.1c-.1.69-.24,1.36-.39,2-.1.52-.21,1-.35,1.57-.18.77-.38,1.53-.62,2.28a45.86,45.86,0,0,1-7.41,14.7,2.11,2.11,0,0,1-.28.37q-.18.26-.39.51A45,45,0,0,1,94.74,115.87Z"/><path class="cls-2" d="M115.55,40.59l-5.26-15.9a74.34,74.34,0,0,1-6.24,20.71A60.9,60.9,0,0,1,92.64,61.77,67.22,67.22,0,0,1,76.49,73.88a92.55,92.55,0,0,1-18.74,7.48c-3.22,1-6.49,1.64-9.76,2.38-3.28.53-6.58,1.22-9.89,1.54a216.78,216.78,0,0,1-38.1,1V71.25A205.38,205.38,0,0,0,37.22,74c3.1,0,6.15-.34,9.25-.52,3-.39,6.12-.69,9.12-1.29a84,84,0,0,0,17.6-5.1A57.52,57.52,0,0,0,100.72,43.6a71.34,71.34,0,0,0,7.94-19.36l-6.74,2.21L114.72,0Z"/></g></g></svg>